<svg width="27" height="28" viewBox="0 0 27 28" fill="none" xmlns="http://www.w3.org/2000/svg">
<path d="M9.59998 4.47401C9.89998 3.97401 10.1 3.474 10.4 3.07401C10.8 2.37401 11.4 2.07401 12.2 2.07401C13.1 2.07401 14 2.07401 14.9 2.07401C15.9 2.07401 16.5 2.47401 17 3.37401C17.6 4.57401 17.6 4.57401 18.8 4.17401C19.8 3.87401 20.5 4.07401 21.2 4.77401C21.8 5.37401 22.4 5.97401 23 6.57401C23.7 7.274 23.9 7.974 23.5 8.874C23.3 9.274 23.2 9.674 23.1 10.174C23.5 10.374 24 10.674 24.4 10.874C25.2 11.274 25.6 11.874 25.5 12.774C25.5 13.674 25.5 14.474 25.5 15.374C25.5 16.374 25.1 17.074 24.2 17.474C23 18.074 23 18.074 23.4 19.274C23.7 20.174 23.5 20.974 22.8 21.674C22.2 22.174 21.6 22.774 21 23.374C20.3 24.074 19.5 24.374 18.6 23.974C18.2 23.874 17.8 23.674 17.4 23.574C17.2 23.974 17 24.374 16.8 24.774C16.4 25.574 15.8 25.974 14.8 25.974C13.9 25.974 13.1 25.974 12.2 25.974C11.2 25.974 10.5 25.574 10.1 24.674C9.89998 24.274 9.79998 23.974 9.49998 23.574C9.09998 23.674 8.59998 23.874 8.19998 23.974C7.39998 24.274 6.69998 24.074 6.09998 23.474C5.39998 22.774 4.79998 22.074 4.09998 21.474C3.49998 20.874 3.29998 20.174 3.59998 19.374C3.99998 17.974 3.99998 17.974 2.79998 17.374C1.99998 16.974 1.59998 16.374 1.59998 15.474C1.59998 14.574 1.59998 13.674 1.59998 12.774C1.59998 11.874 1.99998 11.274 2.79998 10.774C3.99998 10.174 3.99998 10.174 3.59998 8.874C3.29998 7.974 3.49998 7.17401 4.19998 6.57401C4.79998 5.97401 5.39998 5.37401 5.99998 4.77401C6.69998 4.07401 7.39998 3.874 8.39998 4.274C8.79998 4.374 9.19998 4.57401 9.59998 4.67401V4.47401ZM17 5.57401C16.8 5.27401 16.7 4.97401 16.5 4.77401C15.5 2.77401 15.8 2.97401 13.6 2.97401C10.8 2.97401 11.5 2.57401 10.2 4.97401C9.99998 5.37401 9.79998 5.47401 9.39998 5.37401C8.89998 5.17401 8.39998 5.07401 7.79998 4.87401C7.29998 4.67401 6.99998 4.87401 6.59998 5.17401C5.89998 5.87401 5.29998 6.57401 4.59998 7.17401C4.19998 7.57401 4.09998 7.97401 4.29998 8.37401C4.49998 9.07401 4.69998 9.674 4.89998 10.474C4.19998 10.874 3.49998 11.074 2.89998 11.474C2.59998 11.674 2.29998 12.174 2.29998 12.474C2.29998 13.474 2.29998 14.374 2.29998 15.374C2.29998 15.874 2.49998 16.174 2.89998 16.374C3.59998 16.674 4.19998 17.074 4.89998 17.374C4.69998 18.074 4.49998 18.774 4.29998 19.474C4.09998 19.974 4.29998 20.374 4.59998 20.774C5.29998 21.374 5.89998 22.074 6.49998 22.674C6.89998 23.074 7.29998 23.174 7.79998 22.974C8.39998 22.774 9.09998 22.574 9.79998 22.374C10.1 23.074 10.4 23.674 10.8 24.274C11 24.574 11.4 24.874 11.7 24.874C12.7 24.974 13.6 24.874 14.6 24.874C15.1 24.874 15.5 24.674 15.8 24.174C16.1 23.574 16.5 22.974 16.8 22.274C17.5 22.474 18.2 22.674 18.9 22.974C19.4 23.174 19.8 23.074 20.1 22.674C20.8 21.974 21.5 21.274 22.2 20.674C22.6 20.274 22.7 19.874 22.5 19.474C22.3 18.774 22.1 18.174 21.9 17.474C22.6 17.174 23.2 16.774 23.8 16.474C24.3 16.274 24.5 15.874 24.5 15.374C24.5 14.474 24.5 13.674 24.5 12.774C24.5 12.074 24.3 11.674 23.7 11.374C23.3 11.174 23 10.974 22.6 10.774C22 10.574 21.9 10.174 22.2 9.57401C22.4 9.17401 22.5 8.67401 22.6 8.27401C22.8 7.77401 22.6 7.47401 22.4 7.07401C21.7 6.37401 21.1 5.67401 20.3 4.97401C20 4.77401 19.5 4.67401 19.1 4.67401C18.4 4.774 17.7 5.07401 17 5.27401V5.57401Z" fill="#05141F"/>
<path d="M7.79999 13.974C7.79999 10.874 10.4 8.27399 13.5 8.27399C16.6 8.27399 19.1 10.774 19.1 13.974C19.1 17.074 16.6 19.574 13.5 19.574C10.3 19.574 7.79999 17.074 7.79999 13.974ZM13.5 18.774C16.1 18.774 18.3 16.574 18.3 13.974C18.3 11.374 16.1 9.17399 13.5 9.17399C10.9 9.17399 8.69999 11.374 8.69999 13.974C8.69999 16.674 10.8 18.774 13.5 18.774Z" fill="#05141F"/>
</svg>
