<svg width="27" height="28" viewBox="0 0 27 28" fill="none" xmlns="http://www.w3.org/2000/svg">
<g clip-path="url(#clip0_3_1943)">
<path d="M27 13.974C27 21.474 20.9 27.474 13.4 27.474C6 27.474 0 21.374 0 13.974C0 6.474 6.1 0.473999 13.6 0.473999C21 0.473999 27 6.574 27 13.974ZM13.6 26.574C20.6 26.574 26.2 20.874 26.2 13.774C26.2 6.874 20.5 1.274 13.6 1.274C6.6 1.274 0.9 6.974 0.9 13.974C0.9 20.974 6.7 26.574 13.6 26.574Z" fill="#05141F"/>
<path d="M13.5 3.974C19 3.974 23.5 8.474 23.5 13.974C23.5 19.474 19 24.074 13.5 24.074C7.9 24.074 3.5 19.574 3.5 13.974C3.5 8.474 8 4.074 13.6 4.074L13.5 3.974ZM9.4 22.274C9.6 22.074 9.7 21.874 9.8 21.774C11.6 19.874 14.6 19.674 16.6 21.374C16.9 21.674 17.3 22.174 17.6 22.074C18 22.074 18.4 21.674 18.8 21.374C19 21.274 19.1 21.074 19.3 20.974C18.6 19.674 18.5 18.374 19.2 17.074C19.9 15.774 21.1 15.174 22.5 15.074V12.674H4.4V14.974C7.8 15.374 9 18.474 7.6 21.074C8.2 21.474 8.8 21.874 9.4 22.274ZM22.3 11.674C21.4 7.574 17.2 4.574 12.8 4.874C8.9 5.174 4.9 8.474 4.7 11.674H22.3ZM16.7 22.574C14.9 20.474 11.6 20.574 10.5 22.574C12.6 23.274 14.6 23.274 16.7 22.574ZM20.1 20.374C21.3 19.074 22.1 17.674 22.5 15.974C21.4 15.974 20.6 16.574 20.1 17.474C19.6 18.374 19.6 19.374 20.1 20.374ZM6.9 20.374C7.5 19.274 7.4 18.274 6.9 17.274C6.4 16.474 5.6 15.974 4.6 15.974C5 17.674 5.8 19.074 7 20.374H6.9Z" fill="#05141F"/>
<path d="M13.5 13.974C14.8 13.974 15.8 14.974 15.7 16.274C15.7 17.474 14.7 18.474 13.5 18.474C12.2 18.474 11.2 17.474 11.2 16.174C11.2 14.874 12.2 13.974 13.5 13.974ZM14.9 16.274C14.9 15.474 14.2 14.874 13.5 14.874C12.7 14.874 12.1 15.574 12.1 16.274C12.1 17.074 12.7 17.674 13.5 17.674C14.3 17.674 14.9 16.974 14.9 16.274Z" fill="#05141F"/>
</g>
<defs>
<clipPath id="clip0_3_1943">
<rect width="27" height="27" fill="white" transform="translate(0 0.473999)"/>
</clipPath>
</defs>
</svg>
