<svg width="27" height="28" viewBox="0 0 27 28" fill="none" xmlns="http://www.w3.org/2000/svg">
<g clip-path="url(#clip0_3_1878)">
<path d="M1.39307 21.37H3.56201C3.93094 21.3697 4.28469 21.2231 4.54566 20.9624C4.80662 20.7016 4.95357 20.3479 4.9541 19.979V19.2H8.875V25.228C8.875 25.838 9.11725 26.423 9.54859 26.8543C9.97992 27.2857 10.5651 27.528 11.1751 27.528H22.249C22.5511 27.528 22.8501 27.4685 23.1292 27.3529C23.4082 27.2373 23.6619 27.0679 23.8755 26.8543C24.0891 26.6408 24.2584 26.3872 24.374 26.1082C24.4896 25.8291 24.5491 25.53 24.5491 25.228V9.67H25.594C25.9659 9.67 26.3227 9.5227 26.5862 9.26032C26.8497 8.99794 26.9984 8.64186 27 8.27V3.694H25.8679V0.526001H24.3679V3.694H23.1301V0.526001H21.6301V3.694H20.498V8.27C20.4996 8.64186 20.6484 8.99794 20.9119 9.26032C21.1754 9.5227 21.5322 9.67 21.9041 9.67H22.949V25.229C22.9487 25.4118 22.876 25.5871 22.7466 25.7163C22.6172 25.8454 22.4419 25.918 22.259 25.918H11.1851C11.0022 25.918 10.8269 25.8454 10.6975 25.7163C10.5681 25.5871 10.4954 25.4118 10.4951 25.229L10.395 17.592H14.4141V19.2V19.976C14.4146 20.3449 14.5613 20.6986 14.8223 20.9594C15.0832 21.2201 15.4372 21.3667 15.8062 21.367H17.9751C18.344 21.3667 18.6978 21.2201 18.9587 20.9594C19.2197 20.6986 19.3664 20.3449 19.3669 19.976V12.261C19.3659 11.6359 19.1234 11.0353 18.6899 10.5849C18.2565 10.1345 17.6656 9.86903 17.041 9.844L16.2 4.857C16.1457 4.5323 15.978 4.23744 15.7266 4.02498C15.4751 3.81252 15.1564 3.69629 14.8272 3.697H4.5481C4.21884 3.69609 3.89995 3.81225 3.64844 4.02474C3.39693 4.23724 3.22913 4.53222 3.17505 4.857L2.75 7.378L2.33399 9.843C1.70919 9.86777 1.11825 10.1331 0.684572 10.5836C0.250891 11.034 0.00813899 11.6347 0.00708154 12.26V19.975C0.0065477 20.3436 0.152084 20.6974 0.411867 20.9588C0.67165 21.2203 1.02449 21.3681 1.39307 21.37ZM22.0991 8.07V5.303H25.3901V8.064L22.0991 8.07ZM4.72608 5.312H14.636L15.4199 9.85H4.02002L4.72608 5.312ZM1.61109 12.267C1.61135 12.0518 1.69687 11.8455 1.84912 11.6935C2.00137 11.5414 2.20791 11.456 2.4231 11.456H16.939C17.1542 11.456 17.3607 11.5414 17.5129 11.6935C17.6652 11.8455 17.7507 12.0518 17.751 12.267V19.767H16.0181V17.591H3.34497V19.758H1.61206L1.61109 12.267Z" fill="#05141F"/>
</g>
<defs>
<clipPath id="clip0_3_1878">
<rect width="27" height="27" fill="white" transform="translate(0 0.526001)"/>
</clipPath>
</defs>
</svg>
