<svg width="27" height="28" viewBox="0 0 27 28" fill="none" xmlns="http://www.w3.org/2000/svg">
<path d="M25.9 11.674C25.8 11.874 25.6 12.274 25.3 12.474C23.7 13.974 22.1 15.474 20.4 16.874C20 17.274 19.9 17.574 20.1 18.074C20.6 20.174 21.1 22.174 21.6 24.274C21.8 24.874 21.6 25.374 21.2 25.774C20.7 26.174 20.1 26.074 19.6 25.774C17.7 24.674 15.9 23.574 14 22.374C13.7 22.174 13.4 22.174 13.1 22.374C11.3 23.474 9.40002 24.574 7.60002 25.674C7.00002 25.974 6.50002 26.174 5.90002 25.674C5.30002 25.274 5.30002 24.674 5.50002 24.074C6.00002 22.074 6.50002 19.974 7.00002 17.974C7.10002 17.474 7.00002 17.174 6.60002 16.774C5.00002 15.374 3.40002 13.874 1.80002 12.474C1.30002 11.974 0.900017 11.474 1.20002 10.774C1.40002 10.074 2.00002 9.974 2.60002 9.974C4.70002 9.974 6.70002 9.774 8.80002 9.674C9.40002 9.674 9.70002 9.474 9.90002 8.874C10.7 6.874 11.5 4.874 12.3 2.774C12.5 2.174 12.9 1.674 13.6 1.674C14.3 1.674 14.7 2.174 14.9 2.774C15.7 4.874 16.5 6.874 17.3 8.974C17.5 9.374 17.7 9.574 18.1 9.574C20.3 9.574 22.5 9.774 24.7 9.974C25.5 9.974 26 10.474 26 11.574L25.9 11.674ZM20.8 24.774C20.8 24.574 20.8 24.474 20.7 24.274C20.2 22.174 19.7 20.074 19.2 17.974C19 17.274 19.2 16.874 19.7 16.374C21.4 14.874 23 13.374 24.7 11.874C24.9 11.674 25 11.374 25.1 11.174C24.9 11.174 24.6 10.874 24.4 10.874C22.2 10.774 20 10.574 17.8 10.474C17.2 10.474 16.8 10.174 16.6 9.574C15.8 7.474 15 5.274 14.1 3.174C14.1 2.974 13.8 2.774 13.6 2.574C13.4 2.774 13.2 2.974 13.1 3.174C12.2 5.274 11.4 7.474 10.6 9.574C10.4 10.074 10.1 10.374 9.50002 10.374C7.30002 10.474 5.10002 10.574 2.90002 10.774C2.60002 10.774 2.40002 10.974 2.10002 11.074C2.20002 11.274 2.30002 11.574 2.50002 11.774C4.20002 13.274 5.80002 14.874 7.50002 16.274C8.00002 16.674 8.10002 17.174 7.90002 17.774C7.40002 19.874 6.90002 21.974 6.40002 24.074C6.40002 24.374 6.40002 24.674 6.40002 24.874C6.70002 24.874 7.00002 24.874 7.30002 24.674C9.20002 23.574 11 22.474 12.8 21.374C13.3 21.074 13.8 21.074 14.3 21.374C15 21.774 15.7 22.174 16.3 22.674C17.5 23.374 18.7 24.174 19.9 24.874C20.4 25.174 20.7 25.074 20.7 24.574L20.8 24.774Z" fill="#05141F"/>
<path d="M16.9 15.074C16.9 16.974 15.3 18.374 13.5 18.374C11.6 18.374 10.1 16.774 10.1 14.874C10.1 12.974 11.7 11.474 13.6 11.574C15.5 11.574 16.9 13.174 16.9 15.074ZM15.7 13.774C15.3 12.874 14.3 12.274 13.2 12.474C12.1 12.574 11.2 13.474 11 14.474C10.8 15.474 11.3 16.674 12.2 17.174C13.2 17.774 14.5 17.574 15.3 16.674C16.1 15.874 16.2 14.674 15.6 13.774H15.7Z" fill="#05141F"/>
<path d="M15.7 13.774C15.3 14.374 14.8 14.874 14.3 15.474C13.1 16.674 13.1 16.674 11.9 15.474C11.8 15.374 11.6 15.274 11.5 15.074C11.5 14.874 11.5 14.674 11.5 14.574C11.5 14.574 11.9 14.574 12 14.574C12.3 14.874 12.6 15.274 13 15.674C13.6 15.074 14 14.574 14.5 14.074C14.8 13.674 15.2 13.574 15.6 13.874L15.7 13.774Z" fill="#05141F"/>
</svg>
