<svg width="27" height="28" viewBox="0 0 27 28" fill="none" xmlns="http://www.w3.org/2000/svg">
<g clip-path="url(#clip0_3_1971)">
<path d="M1.99999 4.474C2.29999 3.474 2.59999 3.274 3.49999 3.274C5.49999 3.274 7.59999 3.274 9.59999 3.274C11.2 3.274 12.4 3.974 13.2 5.274C13.2 5.274 13.3 5.474 13.4 5.474C13.9 4.974 14.3 4.374 14.8 4.074C15.5 3.674 16.3 3.374 17 3.374C19.1 3.374 21.1 3.374 23.2 3.374C24.3 3.374 24.5 3.474 24.9 4.574C25 4.574 25.2 4.574 25.3 4.574C26.5 4.574 26.9 4.974 26.9 6.174C26.9 9.574 26.9 12.874 26.9 16.274C26.9 17.474 26.9 18.774 26.9 19.974C26.9 21.074 26.4 21.474 25.3 21.474C23 21.474 20.7 21.474 18.4 21.474C16.4 21.474 14.9 22.374 13.9 24.174C13.8 24.374 13.5 24.674 13.3 24.674C13.1 24.674 12.8 24.374 12.7 24.174C11.7 22.474 10.2 21.474 8.19999 21.574C5.89999 21.574 3.69999 21.574 1.39999 21.574C0.199988 21.574 -0.200012 21.074 -0.200012 19.974C-1.22041e-05 15.374 -1.22041e-05 10.874 -1.22041e-05 6.274C-1.22041e-05 4.874 0.399988 4.574 1.69999 4.474C1.69999 4.474 1.89999 4.474 1.99999 4.474ZM13.1 20.074C13.1 19.874 13.1 19.674 13.1 19.374C13.1 15.674 13.1 12.074 13.1 8.374C13.1 7.974 13.1 7.474 13.1 7.074C12.9 5.274 11.6 4.174 9.79999 4.174C7.79999 4.174 5.69999 4.174 3.69999 4.174C3.19999 4.174 2.99999 4.274 2.99999 4.874C2.99999 9.174 2.99999 13.374 2.99999 17.674C2.99999 18.174 3.19999 18.374 3.69999 18.374C5.39999 18.374 7.09999 18.374 8.79999 18.374C10.5 18.374 12 18.774 13.2 20.174L13.1 20.074ZM14 20.274C15.2 18.574 16.8 18.174 18.6 18.274C20.2 18.274 21.8 18.274 23.5 18.274C23.9 18.274 24.2 18.274 24.2 17.674C24.2 13.374 24.2 9.074 24.2 4.774C24.2 4.274 24 4.174 23.6 4.174C21.5 4.174 19.5 4.174 17.4 4.174C15.5 4.174 14.1 5.474 14.1 7.274C14.1 11.474 14.1 15.774 14.1 20.174L14 20.274ZM24.9 5.374C24.9 5.674 24.9 5.974 24.9 6.274C24.9 10.074 24.9 13.974 24.9 17.774C24.9 18.774 24.6 19.174 23.5 19.174C21.6 19.174 19.7 19.174 17.8 19.174C16.1 19.174 15 19.874 14.3 21.274C14.1 21.574 13.7 21.874 13.5 21.874C13.2 21.874 12.8 21.574 12.7 21.274C11.9 19.874 10.8 19.074 9.19999 19.174C7.29999 19.174 5.39999 19.174 3.59999 19.174C2.49999 19.174 2.19999 18.874 2.19999 17.774C2.19999 13.874 2.19999 10.074 2.19999 6.174C2.19999 5.974 2.19999 5.674 2.19999 5.474C1.09999 5.274 0.999988 5.474 0.999988 6.374C0.999988 10.874 0.999988 15.274 0.999988 19.774C0.999988 20.674 0.999988 20.674 1.99999 20.674C4.19999 20.674 6.39999 20.674 8.59999 20.674C9.09999 20.674 9.59999 20.674 10.1 20.874C11.6 21.174 12.8 22.174 13.7 23.474C13.7 23.374 13.8 23.274 13.9 23.174C15.1 21.474 16.8 20.574 18.9 20.674C21.1 20.674 23.2 20.674 25.4 20.674C26.3 20.674 26.3 20.674 26.3 19.774C26.3 15.274 26.3 10.874 26.3 6.374C26.3 5.374 26.3 5.374 25.1 5.474L24.9 5.374Z" fill="#05141F"/>
<path d="M7.9 7.774C7.2 7.774 6.4 7.774 5.7 7.774C5.5 7.774 5 7.574 5 7.374C5 7.174 5.4 6.974 5.7 6.974C7.1 6.974 8.6 6.974 10 6.974C10.2 6.974 10.6 7.174 10.6 7.374C10.6 7.574 10.2 7.774 9.9 7.774C9.2 7.774 8.5 7.774 7.8 7.774H7.9Z" fill="#05141F"/>
<path d="M7.9 9.574C8.6 9.574 9.4 9.574 10.1 9.574C10.3 9.574 10.7 9.774 10.7 9.974C10.7 10.174 10.3 10.374 10.1 10.374C8.6 10.374 7.1 10.374 5.6 10.374C5.4 10.374 5 10.174 5 9.974C5 9.774 5.4 9.574 5.6 9.574C6.3 9.574 7.1 9.574 7.8 9.574H7.9Z" fill="#05141F"/>
<path d="M7.89998 12.374C8.69998 12.374 9.39998 12.374 10.2 12.374C10.4 12.374 10.8 12.574 10.8 12.774C10.8 12.974 10.4 13.174 10.2 13.174C8.69998 13.174 7.19998 13.174 5.69998 13.174C5.49998 13.174 5.09998 12.974 5.09998 12.774C5.09998 12.574 5.49998 12.374 5.69998 12.374C6.39998 12.374 7.19998 12.374 7.89998 12.374Z" fill="#05141F"/>
<path d="M7.89998 15.074C8.69998 15.074 9.39998 15.074 10.2 15.074C10.4 15.074 10.7 15.174 10.7 15.474C10.7 15.774 10.3 15.874 10.2 15.874C8.69998 15.874 7.19998 15.874 5.69998 15.874C5.49998 15.874 5.09998 15.674 5.09998 15.474C5.09998 15.274 5.49998 15.174 5.69998 15.074C6.49998 15.074 7.19998 15.074 7.99998 15.074H7.89998Z" fill="#05141F"/>
<path d="M19.1 6.874C19.8 6.874 20.6 6.874 21.3 6.874C21.5 6.874 21.9 7.074 21.9 7.274C21.9 7.474 21.5 7.674 21.3 7.674C19.8 7.674 18.3 7.674 16.8 7.674C16.6 7.674 16.2 7.474 16.2 7.274C16.2 7.074 16.6 6.874 16.8 6.874C17.6 6.874 18.3 6.874 19.1 6.874Z" fill="#05141F"/>
<path d="M19.1 10.474C18.4 10.474 17.6 10.474 16.9 10.474C16.7 10.474 16.3 10.274 16.3 10.074C16.3 9.874 16.7 9.674 16.9 9.674C18.3 9.674 19.8 9.674 21.2 9.674C21.4 9.674 21.9 9.774 21.9 10.074C21.9 10.374 21.4 10.474 21.2 10.474C20.5 10.474 19.8 10.474 19.1 10.474Z" fill="#05141F"/>
<path d="M19.1 13.174C18.3 13.174 17.6 13.174 16.8 13.174C16.6 13.174 16.2 12.974 16.2 12.774C16.2 12.574 16.6 12.374 16.7 12.374C18.2 12.374 19.7 12.374 21.2 12.374C21.4 12.374 21.8 12.574 21.8 12.774C21.8 12.974 21.4 13.174 21.2 13.174C20.5 13.174 19.7 13.174 19 13.174H19.1Z" fill="#05141F"/>
<path d="M19.2 15.074C19.9 15.074 20.6 15.074 21.3 15.074C21.5 15.074 21.9 15.174 21.9 15.474C21.9 15.774 21.5 15.874 21.3 15.874C19.8 15.874 18.3 15.874 16.8 15.874C16.6 15.874 16.2 15.674 16.2 15.474C16.2 15.274 16.6 15.074 16.8 15.074C17.6 15.074 18.3 15.074 19.1 15.074H19.2Z" fill="#05141F"/>
</g>
<defs>
<clipPath id="clip0_3_1971">
<rect width="27" height="27" fill="white" transform="translate(0 0.473999)"/>
</clipPath>
</defs>
</svg>
