<svg width="29" height="33" viewBox="0 0 29 33" fill="none" xmlns="http://www.w3.org/2000/svg">
<g clip-path="url(#clip0_3_1887)">
<path d="M9.44298 21.411C8.9157 21.411 8.40026 21.5674 7.96183 21.8603C7.52341 22.1533 7.1817 22.5696 6.97992 23.0568C6.77813 23.5439 6.72534 24.08 6.82821 24.5971C6.93107 25.1143 7.18499 25.5893 7.55783 25.9622C7.93068 26.335 8.40572 26.5889 8.92287 26.6918C9.44002 26.7947 9.97607 26.7419 10.4632 26.5401C10.9504 26.3383 11.3667 25.9966 11.6597 25.5582C11.9526 25.1197 12.109 24.6043 12.109 24.077C12.109 23.3699 11.8281 22.6918 11.3281 22.1919C10.8282 21.6919 10.15 21.411 9.44298 21.411ZM9.44298 25.148C9.23116 25.148 9.02409 25.0852 8.84797 24.9675C8.67184 24.8498 8.53457 24.6826 8.45351 24.4869C8.37245 24.2912 8.35123 24.0758 8.39256 23.8681C8.43388 23.6603 8.53589 23.4695 8.68567 23.3197C8.83545 23.1699 9.02629 23.0679 9.23404 23.0266C9.4418 22.9853 9.65713 23.0065 9.85283 23.0875C10.0485 23.1686 10.2158 23.3059 10.3335 23.482C10.4512 23.6581 10.514 23.8652 10.514 24.077C10.514 24.3611 10.4011 24.6335 10.2003 24.8343C9.99944 25.0352 9.72703 25.148 9.44298 25.148Z" fill="#05141F"/>
<path d="M21.279 21.411C20.7517 21.411 20.2362 21.5674 19.7978 21.8603C19.3594 22.1533 19.0177 22.5696 18.8159 23.0568C18.6141 23.5439 18.5613 24.08 18.6642 24.5971C18.7671 25.1143 19.021 25.5893 19.3938 25.9622C19.7667 26.335 20.2417 26.5889 20.7589 26.6918C21.276 26.7947 21.8121 26.7419 22.2992 26.5401C22.7864 26.3383 23.2027 25.9966 23.4957 25.5582C23.7886 25.1197 23.945 24.6043 23.945 24.077C23.945 23.3699 23.6641 22.6918 23.1641 22.1919C22.6642 21.6919 21.986 21.411 21.279 21.411ZM21.279 25.148C21.0672 25.148 20.8601 25.0852 20.684 24.9675C20.5078 24.8498 20.3706 24.6826 20.2895 24.4869C20.2084 24.2912 20.1872 24.0758 20.2286 23.8681C20.2699 23.6603 20.3719 23.4695 20.5217 23.3197C20.6715 23.1699 20.8623 23.0679 21.07 23.0266C21.2778 22.9853 21.4931 23.0065 21.6888 23.0875C21.8845 23.1686 22.0518 23.3059 22.1695 23.482C22.2872 23.6581 22.35 23.8652 22.35 24.077C22.35 24.3611 22.2371 24.6335 22.0363 24.8343C21.8354 25.0352 21.563 25.148 21.279 25.148Z" fill="#05141F"/>
<path d="M24.065 18.561L23.055 12.567C22.9931 12.1942 22.8007 11.8556 22.5122 11.6116C22.2237 11.3676 21.8578 11.2342 21.48 11.235H9.242C8.86415 11.2342 8.4983 11.3676 8.2098 11.6116C7.92129 11.8556 7.7289 12.1942 7.667 12.567L6.657 18.561C5.91951 18.578 5.21789 18.8826 4.702 19.4099C4.18611 19.9372 3.89685 20.6453 3.896 21.383V30.583C3.896 31.0073 4.06457 31.4143 4.36463 31.7144C4.66469 32.0144 5.07165 32.183 5.496 32.183H8.079C8.50335 32.183 8.91031 32.0144 9.21037 31.7144C9.51043 31.4143 9.679 31.0073 9.679 30.583V29.595H21.049V30.581C21.049 31.0053 21.2176 31.4123 21.5176 31.7124C21.8177 32.0124 22.2246 32.181 22.649 32.181H25.232C25.6563 32.181 26.0633 32.0124 26.3634 31.7124C26.6634 31.4123 26.832 31.0053 26.832 30.581V21.381C26.8306 20.6426 26.5403 19.9342 26.0231 19.4071C25.506 18.8801 24.8032 18.5764 24.065 18.561ZM9.409 13.031H21.309L22.24 18.559H8.478L9.409 13.031ZM25.03 30.381H22.845V27.795H21.045V29.595H17.588V27.795H7.877V30.378H5.692V21.378C5.69226 21.1057 5.80055 20.8446 5.99309 20.6521C6.18563 20.4595 6.4467 20.3513 6.719 20.351H24.003C24.2753 20.3513 24.5364 20.4595 24.7289 20.6521C24.9214 20.8446 25.0297 21.1057 25.03 21.378V30.381Z" fill="#05141F"/>
<path d="M5.27901 0.526001C4.27694 0.529416 3.29941 0.836336 2.47522 1.40632C1.65103 1.97631 1.01887 2.78261 0.662011 3.719C0.615721 3.84041 0.599699 3.97126 0.61533 4.10025C0.630961 4.22924 0.677775 4.35248 0.751723 4.45931C0.825671 4.56615 0.924528 4.65337 1.03975 4.71342C1.15497 4.77348 1.28308 4.80457 1.41301 4.804H4.69701V6.115H1.41201C1.28208 6.11443 1.15397 6.14552 1.03875 6.20558C0.923529 6.26564 0.824672 6.35285 0.750723 6.45969C0.676775 6.56652 0.629962 6.68976 0.614331 6.81875C0.5987 6.94774 0.614722 7.07859 0.661011 7.2C0.991804 8.07722 1.56567 8.84204 2.31542 9.4049C3.06517 9.96776 3.95976 10.3054 4.89444 10.3782C5.82912 10.451 6.76521 10.256 7.59308 9.81607C8.42096 9.37611 9.10635 8.7094 9.56901 7.894H28.22V3.026H9.56901C9.13865 2.26736 8.51491 1.63632 7.76132 1.19717C7.00774 0.758017 6.15122 0.526431 5.27901 0.526001ZM26.684 6.358V7.894H23.574V6.358H8.59301L8.39301 6.818C8.1613 7.34625 7.79901 7.80686 7.34022 8.1565C6.88142 8.50613 6.34122 8.7333 5.77044 8.81661C5.19965 8.89992 4.61706 8.83664 4.07747 8.63273C3.53788 8.42882 3.05904 8.09098 2.68601 7.651H4.79501C5.17519 7.64889 5.5391 7.49652 5.80737 7.22713C6.07564 6.95773 6.22649 6.59318 6.22701 6.213V4.706C6.22648 4.32478 6.07481 3.95933 5.80525 3.68977C5.53568 3.4202 5.17023 3.26853 4.78901 3.268H2.68501C3.05804 2.82802 3.53688 2.49018 4.07647 2.28627C4.61606 2.08236 5.19865 2.01908 5.76944 2.10239C6.34022 2.18571 6.88042 2.41287 7.33922 2.7625C7.79801 3.11214 8.1603 3.57275 8.39201 4.101L8.59201 4.561H26.682L26.684 6.358Z" fill="#05141F"/>
</g>
<defs>
<clipPath id="clip0_3_1887">
<rect width="27.61" height="31.652" fill="white" transform="translate(0.609985 0.526001)"/>
</clipPath>
</defs>
</svg>
