<svg width="27" height="28" viewBox="0 0 27 28" fill="none" xmlns="http://www.w3.org/2000/svg">
<g clip-path="url(#clip0_3_1985)">
<path d="M17.5 14.774C17.6 14.874 17.7 14.974 17.7 14.974C19.1 15.474 19.6 16.474 19.4 17.874C19.4 18.074 19.4 18.274 19.4 18.374C19.5 19.574 19.1 20.374 17.9 20.774C17.8 20.774 17.6 20.974 17.4 21.074C17.5 21.474 17.6 21.774 17.7 22.174C17.9 22.874 17.7 23.374 17.2 23.874C16.7 24.274 16.3 24.774 15.8 25.174C15.2 25.774 14.6 25.974 13.8 25.674C13.5 25.574 13.2 25.474 12.9 25.374C12.9 25.574 12.7 25.674 12.6 25.774C12.2 26.874 11.4 27.374 10.2 27.174C9.7 27.174 9.2 27.174 8.8 27.174C8 27.174 7.4 26.874 7.1 26.074C7 25.774 6.9 25.574 6.7 25.374C6.7 25.374 6.6 25.374 6.5 25.374C5.2 26.074 4.2 25.674 3.3 24.574C1.9 22.874 1.6 23.574 2.3 20.874C2.2 20.874 2.1 20.674 1.9 20.674C0.800001 20.274 0.300001 19.474 0.500001 18.274C0.400001 16.674 0.400002 15.174 2.4 14.874C2.4 14.674 2.4 14.574 2.4 14.574C1.7 13.174 2.2 12.274 3.3 11.274C5 9.774 4.8 9.774 6.9 10.374C7.1 10.074 7.3 9.674 7.5 9.374C7.8 8.774 8.3 8.574 8.9 8.574C9.6 8.574 10.4 8.574 11.1 8.574C11.9 8.574 12.4 8.874 12.7 9.574C12.8 9.874 13 10.174 13.1 10.374H13.3C14.7 9.674 15.7 10.174 16.7 11.274C17.8 12.374 18.4 13.374 17.5 14.774ZM3.5 20.574C3 21.874 2.6 22.774 3.8 23.974C5 25.174 6 24.974 7.2 24.374C7.5 24.874 7.7 25.474 8 25.874C8.2 26.174 8.6 26.374 8.9 26.474C9.6 26.474 10.3 26.474 11 26.474C11.3 26.474 11.7 26.174 11.8 25.974C12.1 25.474 12.4 24.974 12.6 24.574C13.4 24.774 14.3 25.174 14.9 24.974C15.6 24.774 16.1 23.874 16.7 23.374C16.7 23.074 16.9 22.774 16.9 22.474C16.9 21.874 16.6 21.374 16.4 20.774C17.6 20.174 18.6 19.874 18.6 18.074C18.6 16.374 17.6 15.974 16.4 15.374C16.6 14.774 16.7 14.274 16.9 13.774C17.1 13.374 16.9 12.974 16.6 12.674C16.1 12.274 15.7 11.774 15.3 11.274C15 10.974 14.7 10.774 14.2 10.974C13.7 11.174 13.1 11.274 12.6 11.474C12.4 11.074 12.2 10.774 12 10.374C11.7 9.574 11.3 9.274 10.4 9.374C9.9 9.374 9.4 9.374 8.9 9.374C8.4 9.374 8.1 9.474 7.9 9.974C7.7 10.474 7.4 10.974 7 11.574C5.3 10.274 4.2 11.174 3.1 12.474C2.7 12.974 2.5 13.274 2.8 13.874C3 14.274 3.1 14.774 3.3 15.374C2.1 15.874 1.1 16.274 1.1 17.974C1.1 19.674 2 20.174 3.3 20.674L3.5 20.574Z" fill="#05141F"/>
<path d="M12.3 2.374C12.9 3.074 13.4 3.674 14 4.374C14.2 4.174 14.4 3.974 14.6 3.874C13.9 3.274 13.3 2.674 12.7 2.174C13.7 0.673999 15.1 0.273999 16.4 1.074C17.9 1.974 19 3.074 18.8 5.074C18.8 5.274 19 5.574 19.2 5.774C21.3 7.974 23.5 10.074 25.6 12.274C26.5 13.174 26.6 14.574 25.9 15.474C25 16.574 23.5 16.574 22.4 15.474C20.3 13.374 18.2 11.274 16.1 9.174C15.7 8.774 15.4 8.674 14.8 8.674C13.1 8.674 11 6.874 10.9 5.174C10.9 4.074 11.3 3.274 12.3 2.474V2.374ZM13.9 1.974C14.5 2.574 15.2 3.174 15.8 3.674C15.2 4.274 14.7 4.874 14 5.474C13.4 4.774 12.9 4.174 12.2 3.374C12 3.974 11.8 4.274 11.8 4.674C11.7 6.274 13.8 8.074 15.3 7.774C15.8 7.674 16 7.774 16.4 8.074C17.7 9.474 19.1 10.774 20.4 12.074C21.3 12.974 22.2 13.874 23.2 14.874C23.7 15.374 24.2 15.474 24.8 15.274C25.4 15.074 25.8 14.574 25.8 13.974C25.8 13.474 25.5 12.874 25.2 12.574C23 10.274 20.8 8.074 18.5 5.874C18.3 5.674 18.1 5.474 18.1 5.274C18.6 3.574 17.5 2.674 16.4 1.774C15.6 1.174 14.8 1.274 14 1.974H13.9Z" fill="#05141F"/>
<path d="M9.99998 22.374C7.49998 22.374 5.59998 20.374 5.59998 17.974C5.59998 15.474 7.59998 13.474 10.1 13.474C12.6 13.474 14.6 15.474 14.6 17.974C14.6 20.474 12.6 22.374 10.1 22.374H9.99998ZM9.99998 21.574C12 21.574 13.7 19.874 13.6 17.874C13.6 15.874 12 14.174 9.89998 14.174C7.89998 14.174 6.29998 15.774 6.29998 17.874C6.29998 19.874 7.89998 21.574 9.99998 21.574Z" fill="#05141F"/>
</g>
<defs>
<clipPath id="clip0_3_1985">
<rect width="27" height="27" fill="white" transform="translate(0 0.473999)"/>
</clipPath>
</defs>
</svg>
