<svg width="27" height="28" viewBox="0 0 27 28" fill="none" xmlns="http://www.w3.org/2000/svg">
<path d="M1.70001 11.774C1.70001 10.074 1.70001 8.374 1.70001 6.574C1.70001 5.474 1.90001 5.274 3.00001 5.174C4.70001 4.874 6.40001 4.574 8.10001 4.174C9.80001 3.674 11.3 2.774 12.6 1.574C13.2 0.973999 13.6 0.973999 14.1 1.474C16.8 3.974 20.1 4.874 23.6 5.274C23.9 5.274 24.1 5.274 24.4 5.274C25 5.374 25.3 5.674 25.3 6.274C25.3 9.874 25.3 13.374 25.3 16.974C25.3 19.374 24.1 21.174 21.9 22.374C19.3 23.774 16.8 25.174 14.2 26.574C13.7 26.874 13.2 26.874 12.7 26.574C10.1 25.174 7.50001 23.774 4.90001 22.374C2.80001 21.174 1.70001 19.374 1.70001 16.874C1.70001 15.174 1.70001 13.474 1.70001 11.774ZM13.5 1.974C12.4 2.674 11.4 3.474 10.3 4.074C8.00001 5.274 5.50001 5.774 3.00001 5.974C2.50001 5.974 2.30001 6.174 2.30001 6.674C2.30001 9.974 2.30001 13.374 2.30001 16.674C2.30001 18.874 3.30001 20.674 5.30001 21.674C7.80001 23.074 10.3 24.374 12.8 25.774C13.2 25.974 13.5 25.974 13.9 25.774C16.3 24.474 18.7 23.174 21.1 21.874C23.4 20.674 24.5 18.774 24.5 16.174C24.5 13.274 24.5 10.474 24.5 7.574C24.5 5.974 24.5 5.974 22.9 5.774C19.5 5.374 16.3 4.474 13.7 1.974L13.5 1.874V1.974Z" fill="#05141F"/>
<path d="M9.5 17.574C9.5 17.674 9.5 17.774 9.5 17.974C9.5 18.474 9.7 19.174 9 19.274C8.3 19.374 7.6 19.274 6.9 19.274C6.7 19.274 6.5 18.774 6.5 18.574C6.5 17.074 6.5 15.574 6.5 14.074C6.5 13.074 7.1 12.574 8.1 12.074C7.7 11.774 7.4 11.574 7.2 11.374C7.1 11.374 7 11.174 6.9 11.074C7.1 11.074 7.2 10.874 7.4 10.874C7.8 10.974 8.1 11.274 8.5 11.474C8.7 10.974 9 10.374 9.2 9.774C9.4 9.174 9.9 8.874 10.5 8.874C12.5 8.874 14.6 8.874 16.6 8.874C17.3 8.874 17.7 9.174 18 9.774C18.2 10.374 18.4 10.874 18.7 11.474C19.1 11.274 19.5 11.074 19.8 10.874C19.8 10.874 20.1 10.974 20.2 11.074C20.2 11.174 20 11.274 19.9 11.374C19.6 11.574 19.3 11.774 18.8 12.074C20.5 12.674 20.6 13.774 20.6 15.074C20.6 16.174 20.6 17.274 20.6 18.374C20.6 19.074 20.3 19.374 19.6 19.374C18.2 19.374 17.7 19.774 17.6 17.574H9.7H9.5ZM19.9 16.874C19.9 15.874 19.9 14.874 19.9 13.874C19.9 13.074 19.3 12.574 18.5 12.574C15.1 12.574 11.8 12.574 8.4 12.574C7.7 12.574 7.2 12.974 7.1 13.674C7 14.774 7.1 15.774 7.1 16.874H19.9ZM18.2 12.074C17.9 11.274 17.6 10.474 17.2 9.674C17.2 9.474 16.7 9.274 16.5 9.274C14.5 9.274 12.4 9.274 10.4 9.274C10.2 9.274 9.8 9.374 9.7 9.574C9.3 10.374 9 11.174 8.7 12.074H18.2ZM18 17.574C18 17.974 18 18.674 18.2 18.674C18.7 18.774 19.3 18.774 19.8 18.674C19.9 18.674 19.9 17.974 20 17.574H18ZM7 17.574C7 17.974 7 18.674 7.2 18.674C7.7 18.774 8.3 18.774 8.8 18.674C9 18.674 8.9 17.974 9 17.574H7Z" fill="#05141F"/>
<path d="M9.59999 14.374C9.89999 14.374 10.2 14.374 10.5 14.374C10.6 14.374 10.7 14.574 10.8 14.674C10.8 14.674 10.6 14.874 10.5 14.874C9.89999 14.874 9.29999 14.874 8.59999 14.874C8.49999 14.874 8.39999 14.674 8.29999 14.574C8.39999 14.574 8.49999 14.374 8.59999 14.374C8.89999 14.374 9.19999 14.374 9.49999 14.374H9.59999Z" fill="#05141F"/>
<path d="M17.3 14.374C17.6 14.374 17.9 14.374 18.2 14.374C18.3 14.374 18.4 14.574 18.5 14.574C18.5 14.574 18.3 14.774 18.2 14.774C17.6 14.774 16.9 14.774 16.3 14.774C16.3 14.774 16.1 14.574 16 14.574C16 14.574 16.2 14.374 16.3 14.374C16.6 14.374 16.9 14.374 17.3 14.374Z" fill="#05141F"/>
</svg>
