<svg width="27" height="28" viewBox="0 0 27 28" fill="none" xmlns="http://www.w3.org/2000/svg">
<path d="M22.3 13.974C22.3 17.174 22.3 20.274 22.3 23.474C22.3 24.574 21.9 24.974 20.8 24.974C15.9 24.974 11.1 24.974 6.20001 24.974C5.10001 24.974 4.70001 24.574 4.70001 23.474C4.70001 17.074 4.70001 10.774 4.70001 4.374C4.70001 3.274 5.10001 2.874 6.20001 2.874C11.1 2.874 15.9 2.874 20.8 2.874C21.8 2.874 22.2 3.274 22.2 4.374C22.2 7.574 22.2 10.774 22.2 13.974H22.3ZM5.60001 14.074C5.60001 17.174 5.60001 20.274 5.60001 23.374C5.60001 23.974 5.80001 24.174 6.40001 24.174C11.1 24.174 15.9 24.174 20.6 24.174C21.3 24.174 21.5 23.974 21.5 23.274C21.5 17.074 21.5 10.874 21.5 4.574C21.5 3.774 21.5 3.674 20.6 3.674C15.9 3.674 11.2 3.674 6.50001 3.674C5.60001 3.674 5.60001 3.674 5.60001 4.574C5.60001 7.674 5.60001 10.774 5.60001 13.874V14.074Z" fill="#05141F"/>
<path d="M15 9.274C13.7 9.274 12.4 9.274 11.2 9.274C10.8 9.274 10.4 9.274 10.4 8.674C10.4 8.174 10.8 8.174 11.1 8.174C13.7 8.174 16.3 8.174 18.9 8.174C19.3 8.174 19.6 8.174 19.6 8.674C19.6 9.174 19.3 9.174 18.9 9.174C17.6 9.174 16.2 9.174 14.9 9.174L15 9.274Z" fill="#05141F"/>
<path d="M15.1 13.474C16.4 13.474 17.7 13.474 18.9 13.474C19.3 13.474 19.7 13.474 19.7 13.974C19.7 14.474 19.3 14.474 19 14.474C16.4 14.474 13.8 14.474 11.2 14.474C10.8 14.474 10.5 14.474 10.5 13.974C10.5 13.474 10.8 13.474 11.2 13.474C12.5 13.474 13.8 13.474 15.2 13.474H15.1Z" fill="#05141F"/>
<path d="M15.1 19.674C13.8 19.674 12.5 19.674 11.2 19.674C10.8 19.674 10.5 19.674 10.5 19.174C10.5 18.674 10.9 18.574 11.2 18.574C13.8 18.574 16.4 18.574 19 18.574C19.4 18.574 19.7 18.574 19.7 19.074C19.7 19.574 19.4 19.574 19 19.574C17.7 19.574 16.4 19.574 15.1 19.574V19.674Z" fill="#05141F"/>
<path d="M8.50002 12.774C9.23336 12.774 9.60002 13.2073 9.60002 14.074C9.60002 14.9407 9.16669 15.3073 8.30002 15.174C7.43336 15.0407 7.10002 14.574 7.30002 13.774C7.50002 12.974 7.90002 12.6407 8.50002 12.774Z" fill="#05141F"/>
<path d="M9.69998 19.174C9.69998 19.9073 9.26665 20.274 8.39998 20.274C7.53331 20.274 7.16665 19.8407 7.29998 18.974C7.43332 18.1073 7.86665 17.774 8.59998 17.974C9.33332 18.174 9.69998 18.574 9.69998 19.174Z" fill="#05141F"/>
<path d="M8.49999 9.974C7.69999 9.974 7.29999 9.574 7.29999 8.774C7.29999 7.974 7.73332 7.60733 8.59999 7.674C9.46665 7.74066 9.79999 8.174 9.59999 8.974C9.39999 9.774 8.99999 10.1073 8.39999 9.974H8.49999Z" fill="#05141F"/>
</svg>
