<svg width="28" height="28" viewBox="0 0 28 28" fill="none" xmlns="http://www.w3.org/2000/svg">
<g clip-path="url(#clip0_3_1899)">
<path d="M23.6208 18.3773C23.4357 18.382 23.2518 18.3503 23.0798 18.2816C22.9079 18.2129 22.7518 18.1098 22.6208 17.9789C22.4899 17.8479 22.3868 17.6918 22.3181 17.5199C22.2494 17.3479 22.2163 17.164 22.2209 16.9789V16.0785H19.7742V14.5785H23.6199V16.7777H25.5203V8.97885C25.5203 8.74016 25.4254 8.51092 25.2566 8.34213C25.0878 8.17335 24.8586 8.07846 24.6199 8.07846H9.71997C9.31997 8.07846 9.02017 8.49838 8.92017 8.87338V9.8187H7.32104V8.87338C7.34695 8.24564 7.60825 7.65117 8.05298 7.20737C8.4977 6.76357 9.09315 6.50345 9.72095 6.47885L10.6208 1.27768C10.669 0.968605 10.8269 0.68676 11.0657 0.484712C11.3045 0.282664 11.6084 0.174351 11.9211 0.178071H22.5212C22.834 0.174351 23.1374 0.282664 23.3762 0.484712C23.615 0.68676 23.7729 0.968605 23.821 1.27768L24.7209 6.47885C25.3695 6.52283 25.98 6.80045 26.4397 7.2601C26.8993 7.71976 27.177 8.33029 27.2209 8.97885V16.9789C27.2258 17.164 27.1929 17.3478 27.1243 17.5199C27.0556 17.6919 26.9525 17.8479 26.8215 17.9789C26.6906 18.1098 26.5346 18.2129 26.3625 18.2816C26.1905 18.3502 26.0062 18.3821 25.821 18.3773H23.6208ZM11.2209 6.47885H23.1208L22.321 1.67807H12.0212L11.2209 6.47885ZM19.7722 15.9906C19.7722 16.0159 19.7722 16.0451 19.7722 16.0785C19.7722 16.0785 19.7732 16.0415 19.7722 15.9925V15.9906ZM19.7722 15.9339C19.7722 15.9499 19.7722 15.9648 19.7722 15.9808C19.7722 15.9698 19.7712 15.9509 19.7712 15.9359L19.7722 15.9339ZM19.7722 15.9183C19.7725 15.923 19.7725 15.9293 19.7722 15.9339C19.772 15.9303 19.7717 15.9259 19.7712 15.9222L19.7722 15.9183ZM19.7722 15.8324C19.7722 15.8504 19.7722 15.8718 19.7722 15.8988C19.7702 15.8778 19.7703 15.8563 19.7703 15.8363L19.7722 15.8324ZM19.7722 15.7933C19.7722 15.8013 19.7722 15.8116 19.7722 15.8226C19.7692 15.8146 19.7693 15.8052 19.7693 15.7972L19.7722 15.7933ZM20.0242 11.2601C20.0242 10.6501 20.2662 10.0664 20.6975 9.6351C21.1288 9.20377 21.714 8.96127 22.324 8.96127C22.934 8.96127 23.5191 9.20377 23.9504 9.6351C24.3818 10.0664 24.6243 10.6501 24.6243 11.2601C24.6243 11.8701 24.3818 12.4557 23.9504 12.8871C23.5191 13.3184 22.934 13.5609 22.324 13.5609C22.0218 13.5613 21.7224 13.5024 21.4431 13.3871C21.1638 13.2717 20.9099 13.1025 20.696 12.889C20.4822 12.6755 20.3124 12.422 20.1965 12.1429C20.0807 11.8638 20.0214 11.5643 20.0212 11.2621L20.0242 11.2601ZM21.3899 11.2601C21.3899 11.3823 21.4139 11.5046 21.4607 11.6175C21.5075 11.7304 21.5764 11.8319 21.6628 11.9183C21.7493 12.0047 21.8517 12.0748 21.9646 12.1214C22.0775 12.1681 22.1988 12.1919 22.321 12.1917C22.4436 12.1924 22.565 12.1679 22.6785 12.1214C22.7919 12.075 22.8952 12.0067 22.9822 11.9203C23.0691 11.8338 23.1381 11.7307 23.1853 11.6175C23.2325 11.5044 23.257 11.3827 23.2571 11.2601C23.2576 11.137 23.2336 11.0165 23.1868 10.9027C23.1399 10.7889 23.0712 10.685 22.9841 10.598C22.8971 10.511 22.7937 10.4417 22.6799 10.3949C22.5661 10.348 22.4441 10.324 22.321 10.3246C22.198 10.3242 22.0763 10.3479 21.9626 10.3949C21.849 10.4419 21.7453 10.5109 21.6584 10.598C21.5716 10.6851 21.5029 10.7888 21.4563 10.9027C21.4097 11.0165 21.3862 11.139 21.387 11.2621L21.3899 11.2601Z" fill="#05141F"/>
<path d="M0.111023 21.674L2.11102 25.1469L4.19501 24.6819L6.35614 25.9359L6.99603 27.973L11.0021 27.9799L11.6411 25.9409L13.81 24.688L15.8981 25.154L17.8981 21.683L16.4521 20.11V17.61L17.8981 16.0359L15.8891 12.5689L13.8032 13.0359L11.6472 11.793L11.007 9.75696H6.99896L6.36005 11.796L4.2121 13.037L2.12616 12.572L0.120056 16.042L1.56317 17.6129V20.101L0.111023 21.674ZM1.81097 15.8889L2.65717 14.189L4.37616 14.5229L7.26898 12.7849L7.79706 11.046H10.2092L10.736 12.7849L13.6362 14.5229L15.3691 14.189L16.217 15.8889L15.028 17.189V20.5219L16.217 21.83L15.3691 23.53L13.6362 23.206L10.736 24.899L10.2092 26.637H7.79706L7.26898 24.899L4.37616 23.206L2.65717 23.53L1.81097 21.83L2.91107 20.5219V17.189L1.81097 15.8889Z" fill="#05141F"/>
<path d="M9.0061 23.926C10.0065 23.926 10.9844 23.6293 11.8162 23.0735C12.6479 22.5177 13.2961 21.7278 13.679 20.8035C14.0618 19.8793 14.162 18.8623 13.9668 17.8812C13.7716 16.9 13.2899 15.9988 12.5825 15.2914C11.8751 14.584 10.9741 14.1023 9.99292 13.9071C9.01176 13.712 7.99454 13.8121 7.07031 14.195C6.14608 14.5778 5.35632 15.2261 4.80054 16.0579C4.24476 16.8897 3.948 17.8676 3.948 18.8679C3.948 20.2094 4.48088 21.4959 5.42944 22.4445C6.378 23.3931 7.66464 23.926 9.0061 23.926ZM9.0061 15.28C9.49541 15.2409 9.98732 15.3055 10.45 15.4696C10.9126 15.6336 11.3353 15.8935 11.6907 16.2321C12.046 16.5708 12.3261 16.9806 12.5122 17.4348C12.6984 17.889 12.7865 18.3773 12.771 18.8679C12.7879 19.3616 12.7012 19.8533 12.5164 20.3113C12.3315 20.7694 12.0527 21.1836 11.698 21.5273C11.3433 21.871 10.9204 22.1366 10.4568 22.3069C9.99313 22.4772 9.49897 22.5484 9.0061 22.5159C8.51799 22.5465 8.0288 22.4733 7.57104 22.3011C7.11329 22.129 6.6973 21.8617 6.35034 21.517C6.00339 21.1723 5.73353 20.758 5.55835 20.3014C5.38317 19.8448 5.3066 19.3562 5.33398 18.8679C5.30843 18.3828 5.38657 17.8978 5.56323 17.4452C5.73989 16.9927 6.01117 16.583 6.35864 16.2435C6.70612 15.9039 7.12185 15.6424 7.57837 15.4762C8.03489 15.3101 8.52168 15.2432 9.0061 15.28Z" fill="#05141F"/>
</g>
<defs>
<clipPath id="clip0_3_1899">
<rect width="27.111" height="27.804" fill="white" transform="translate(0.111023 0.177979)"/>
</clipPath>
</defs>
</svg>
