<svg width="24" height="28" viewBox="0 0 24 28" fill="none" xmlns="http://www.w3.org/2000/svg">
<g clip-path="url(#clip0_3_1916)">
<path d="M12.002 27.982C8.59079 27.1629 5.55868 25.21 3.40201 22.443C1.20387 19.7957 0.00106768 16.4629 0.00201472 13.022V4.97099L12.002 0.981995L24.002 4.97099V10.454C24.002 10.554 24.007 13.216 24.002 13.554C23.9245 16.8186 22.7237 19.9566 20.602 22.439C18.446 25.2075 15.4138 27.1618 12.002 27.982ZM12.002 26.272C14.9286 25.4579 17.5072 23.7059 19.342 21.285C21.0778 19.071 22.0747 16.3679 22.192 13.557C22.192 13.59 24.002 13.557 24.002 13.557V10.457H22.202V6.11099L12.002 2.69199L1.80201 6.11199V13.022C1.78812 16.0217 2.7969 18.9366 4.66201 21.286C6.49701 23.7066 9.07557 25.4582 12.002 26.272Z" fill="#05141F"/>
<path d="M6.45401 19.249H7.47601C7.67041 19.249 7.85685 19.1718 7.99432 19.0343C8.13178 18.8968 8.20901 18.7104 8.20901 18.516V17.866H15.265V18.516C15.2653 18.7103 15.3426 18.8966 15.48 19.034C15.6174 19.1714 15.8037 19.2487 15.998 19.249H17.02C17.2143 19.2487 17.4006 19.1714 17.538 19.034C17.6754 18.8966 17.7527 18.7103 17.753 18.516V13.594C17.7527 13.2257 17.6063 12.8725 17.3459 12.6121C17.0855 12.3517 16.7323 12.2053 16.364 12.205H16.294L15.737 8.896C15.7085 8.72495 15.6202 8.56957 15.4878 8.45764C15.3553 8.34572 15.1874 8.28452 15.014 8.28498H8.46001C8.28661 8.28452 8.1187 8.34572 7.98625 8.45764C7.85381 8.56957 7.76547 8.72495 7.73701 8.896L7.18001 12.205H7.11001C6.7417 12.2053 6.38856 12.3517 6.12813 12.6121C5.8677 12.8725 5.72127 13.2257 5.72101 13.594V18.516C5.72101 18.6123 5.73997 18.7075 5.7768 18.7965C5.81364 18.8854 5.86763 18.9662 5.9357 19.0343C6.00376 19.1024 6.08457 19.1563 6.1735 19.1932C6.26243 19.23 6.35775 19.249 6.45401 19.249ZM7.49201 18.516C7.49201 18.5202 7.49032 18.5243 7.48732 18.5273C7.48432 18.5303 7.48025 18.532 7.47601 18.532H6.45401C6.44977 18.532 6.4457 18.5303 6.44269 18.5273C6.43969 18.5243 6.43801 18.5202 6.43801 18.516V17.866H7.49201V18.516ZM17.033 18.516C17.033 18.5202 17.0313 18.5243 17.0283 18.5273C17.0253 18.5303 17.0213 18.532 17.017 18.532H15.995C15.9908 18.532 15.9867 18.5303 15.9837 18.5273C15.9807 18.5243 15.979 18.5202 15.979 18.516V17.866H17.033V18.516ZM8.44401 9.01599C8.44472 9.01229 8.44671 9.00894 8.44964 9.00656C8.45256 9.00419 8.45624 9.00293 8.46001 9.00299H15.011C15.0148 9.00293 15.0185 9.00419 15.0214 9.00656C15.0243 9.00894 15.0263 9.01229 15.027 9.01599L15.564 12.206H7.90701L8.44401 9.01599ZM6.43701 13.595C6.43727 13.4168 6.50816 13.2461 6.63412 13.1201C6.76009 12.9941 6.93086 12.9232 7.10901 12.923H16.365C16.5432 12.9232 16.7139 12.9941 16.8399 13.1201C16.9659 13.2461 17.0367 13.4168 17.037 13.595V17.151H6.43701V13.595Z" fill="#05141F" stroke="#05141F" stroke-width="0.5"/>
</g>
<defs>
<clipPath id="clip0_3_1916">
<rect width="24.002" height="27" fill="white" transform="translate(0.00201416 0.981995)"/>
</clipPath>
</defs>
</svg>
