<svg width="27" height="28" viewBox="0 0 27 28" fill="none" xmlns="http://www.w3.org/2000/svg">
<g clip-path="url(#clip0_3_1909)">
<path d="M13.46 12.755C14.6243 12.7548 15.7624 12.4094 16.7304 11.7624C17.6984 11.1154 18.4528 10.1959 18.8982 9.12019C19.3436 8.04446 19.4601 6.86081 19.2328 5.71891C19.0055 4.57701 18.4448 3.52814 17.6214 2.70493C16.7981 1.88172 15.7491 1.32113 14.6072 1.09406C13.4652 0.866995 12.2816 0.983635 11.2059 1.42924C10.1303 1.87484 9.21092 2.62939 8.56409 3.59748C7.91727 4.56557 7.57202 5.70372 7.57202 6.86802C7.57202 7.6412 7.72433 8.4068 8.02024 9.12111C8.31615 9.83542 8.74987 10.4844 9.29664 11.0311C9.8434 11.5778 10.4925 12.0114 11.2069 12.3072C11.9212 12.603 12.6868 12.7552 13.46 12.755ZM13.46 2.62502C14.2994 2.62522 15.1198 2.87429 15.8176 3.34075C16.5154 3.80721 17.0592 4.4701 17.3803 5.24561C17.7013 6.02111 17.7852 6.87441 17.6214 7.6976C17.4575 8.52079 17.0532 9.2769 16.4596 9.87033C15.8661 10.4638 15.1098 10.8679 14.2866 11.0315C13.4634 11.1952 12.6101 11.1111 11.8347 10.7899C11.0593 10.4686 10.3965 9.92466 9.9302 9.22676C9.46391 8.52886 9.21503 7.70836 9.21503 6.86902C9.21516 6.31169 9.32506 5.75984 9.53846 5.24499C9.75186 4.73013 10.0646 4.26235 10.4588 3.86835C10.853 3.47435 11.3209 3.16185 11.8358 2.94869C12.3508 2.73553 12.9027 2.62489 13.46 2.62502Z" fill="#05141F"/>
<path d="M2.59405 26.342C2.59458 26.0857 2.69683 25.8401 2.87833 25.6592C3.05984 25.4782 3.30575 25.3767 3.56205 25.377H4.85005C5.10634 25.3767 5.35225 25.4782 5.53376 25.6592C5.71527 25.8401 5.81752 26.0857 5.81805 26.342V27.982H7.42705V26.342C7.42774 25.8291 7.27369 25.328 6.98505 24.904C7.53321 23.6446 8.43719 22.5726 9.58601 21.8197C10.7348 21.0668 12.0785 20.6657 13.452 20.6657C14.8256 20.6657 16.1693 21.0668 17.3181 21.8197C18.4669 22.5726 19.3709 23.6446 19.919 24.904C19.6304 25.328 19.4764 25.8291 19.477 26.342V27.982H21.086V26.342C21.0866 26.0857 21.1888 25.8401 21.3703 25.6592C21.5518 25.4782 21.7978 25.3767 22.054 25.377H23.342C23.5983 25.3767 23.8443 25.4782 24.0258 25.6592C24.2073 25.8401 24.3095 26.0857 24.31 26.342V27.982H25.919V26.342C25.9188 25.9408 25.8244 25.5451 25.6435 25.187C25.4625 24.8289 25.2 24.5182 24.877 24.28C24.6839 24.1126 24.4586 23.9864 24.215 23.909C23.906 23.826 23.588 23.7803 23.268 23.773L24.877 22.304V19.374C24.8768 18.5076 24.6815 17.6523 24.3056 16.8715C23.9298 16.0908 23.3831 15.4047 22.706 14.864L26.975 9.83101L25.747 8.79501L16.551 19.632C16.0697 19.4471 15.5727 19.3058 15.066 19.21L26.97 5.26601L25.745 4.22601L17.761 13.583H7.83405C6.29671 13.5825 4.82194 14.1918 3.73329 15.2772C2.64464 16.3627 2.03102 17.8357 2.02705 19.373V24.28C1.70412 24.5182 1.44162 24.8289 1.26064 25.187C1.07966 25.5451 0.985265 25.9408 0.985046 26.342V27.982H2.59405V26.342ZM21.661 16.088C22.1594 16.4783 22.5625 16.977 22.8397 17.5461C23.1169 18.1152 23.261 18.74 23.261 19.373V22.303H24.87L23.261 23.773H22.052C21.7718 23.7731 21.4935 23.8191 21.228 23.909C20.5116 22.4553 19.4032 21.2306 18.028 20.373L21.661 16.088ZM7.83205 15.188H16.385L13.072 19.07C11.5179 19.1384 10.0108 19.6238 8.70876 20.4752C7.40675 21.3266 6.35784 22.5127 5.67205 23.909C5.40663 23.8191 5.12829 23.7731 4.84805 23.773H3.63605V19.373C3.63975 18.2619 4.08361 17.1975 4.87043 16.4129C5.65725 15.6283 6.72291 15.1875 7.83405 15.187L7.83205 15.188Z" fill="#05141F"/>
</g>
<defs>
<clipPath id="clip0_3_1909">
<rect width="25.986" height="27" fill="white" transform="translate(0.986023 0.981995)"/>
</clipPath>
</defs>
</svg>
