<svg width="29" height="30" viewBox="0 0 29 30" fill="none" xmlns="http://www.w3.org/2000/svg">
<g clip-path="url(#clip0_3_1923)">
<path d="M14.738 3.81042L3.32038 15.2281L14.738 26.6457L24.9296 16.4542L26.3162 17.8196L26.3162 12.5757L24.902 13.9899L14.738 3.81042ZM14.738 0.981995L26.3162 12.5757L26.3162 17.8196L14.738 29.4742L0.491957 15.2281L14.738 0.981995Z" fill="#05141F"/>
<path d="M13.925 16.752H15.551V8.832H13.925V16.752ZM14.738 20.215C14.9485 20.2202 15.1543 20.152 15.3199 20.022C15.4856 19.892 15.6008 19.7083 15.6457 19.5026C15.6906 19.2968 15.6625 19.0819 15.5661 18.8946C15.4697 18.7074 15.3111 18.5596 15.1176 18.4766C14.9241 18.3936 14.7077 18.3806 14.5056 18.4399C14.3035 18.4992 14.1284 18.627 14.0103 18.8013C13.8923 18.9757 13.8386 19.1858 13.8587 19.3954C13.8787 19.605 13.9711 19.8011 14.12 19.95C14.1995 20.034 14.2953 20.1008 14.4016 20.1464C14.5079 20.1919 14.6224 20.2153 14.738 20.215Z" fill="#05141F"/>
</g>
<defs>
<clipPath id="clip0_3_1923">
<rect width="28.492" height="28.492" fill="white" transform="translate(0.492004 0.981995)"/>
</clipPath>
</defs>
</svg>
