<svg width="27" height="28" viewBox="0 0 27 28" fill="none" xmlns="http://www.w3.org/2000/svg">
<path d="M13.5 24.574C10 24.574 6.5 24.574 3 24.574C1.5 24.574 0.899997 23.674 1.7 22.374C5.2 16.374 8.8 10.274 12.3 4.27399C13 3.07399 14.1 3.07399 14.8 4.27399C18.3 10.374 21.9 16.374 25.4 22.474C26.1 23.774 25.6 24.674 24.1 24.674C20.6 24.674 17.1 24.674 13.5 24.674V24.574ZM13.5 23.774C17 23.774 20.4 23.774 23.9 23.774C24.9 23.774 25 23.574 24.5 22.674C21.1 16.774 17.6 10.874 14.2 4.97399C13.6 3.97399 13.4 3.97399 12.9 4.97399C9.4 10.874 6 16.774 2.5 22.774C2 23.674 2.1 23.874 3.1 23.874C6.6 23.874 10.1 23.874 13.5 23.874V23.774Z" fill="#05141F"/>
<path d="M14.2 15.074C14.2 15.774 14.2 16.474 14.2 17.174C14.2 17.674 14 18.074 13.5 18.074C13 18.074 12.8 17.674 12.8 17.174C12.8 15.774 12.8 14.274 12.8 12.874C12.8 12.374 12.9 12.074 13.5 12.074C14.1 12.074 14.2 12.474 14.2 12.974C14.2 13.674 14.2 14.374 14.2 15.074Z" fill="#05141F"/>
<path d="M14.3 19.974C14.3 20.474 14 20.774 13.5 20.774C13 20.774 12.7 20.474 12.7 19.974C12.7 19.474 13 19.174 13.5 19.174C14 19.174 14.3 19.474 14.3 19.974Z" fill="#05141F"/>
</svg>
