<svg width="27" height="28" viewBox="0 0 27 28" fill="none" xmlns="http://www.w3.org/2000/svg">
<g clip-path="url(#clip0_3_1930)">
<path d="M24.617 6.799L23.744 1.616C23.6908 1.29634 23.5258 1.00597 23.2783 0.796775C23.0308 0.587578 22.717 0.473175 22.393 0.474003H11.825C11.5009 0.473175 11.1871 0.587578 10.9396 0.796775C10.6922 1.00597 10.5271 1.29634 10.474 1.616L10.017 4.329L9.60096 6.799C8.96527 6.81156 8.35984 7.07266 7.91438 7.52635C7.46891 7.98003 7.21889 8.59019 7.21796 9.226V9.303C5.00498 9.78905 3.04951 11.0753 1.72681 12.9149C0.404119 14.7545 -0.192576 17.0177 0.0512773 19.2703C0.295131 21.5229 1.36232 23.606 3.04804 25.1199C4.73377 26.6338 6.91927 27.4718 9.18501 27.473H9.19196C10.5663 27.4716 11.9228 27.1623 13.1619 26.5679C14.401 25.9734 15.4911 25.1089 16.3523 24.0379C17.2135 22.9669 17.8238 21.7165 18.1383 20.3787C18.4529 19.0409 18.4637 17.6496 18.17 16.307H22.03V17.168C22.0305 17.5312 22.175 17.8793 22.4318 18.1362C22.6886 18.393 23.0368 18.5375 23.4 18.538H25.63C25.9931 18.5375 26.3413 18.393 26.5982 18.1362C26.855 17.8793 26.9995 17.5312 27 17.168V9.22701C26.9993 8.59101 26.7495 7.98061 26.304 7.52671C25.8585 7.07281 25.2528 6.81156 24.617 6.799ZM11.962 2.005H22.257L23.064 6.797H11.313L11.962 2.005ZM15.157 23.078L12.093 20.018C12.7152 19.1243 12.9801 18.03 12.8357 16.9506C12.6913 15.8713 12.1479 14.8851 11.3126 14.1865C10.4773 13.4878 9.41065 13.1273 8.32276 13.1759C7.23487 13.2245 6.20461 13.6787 5.43494 14.4491C4.66528 15.2195 4.21198 16.2501 4.16438 17.3381C4.11677 18.426 4.47831 19.4923 5.17774 20.327C5.87718 21.1616 6.86382 21.7041 7.94331 21.8476C9.02279 21.991 10.1168 21.725 11.01 21.102L14.082 24.174C12.7098 25.3189 10.979 25.9453 9.19196 25.944H9.18501C8.17869 25.9433 7.18234 25.7445 6.25288 25.3588C5.32341 24.9731 4.479 24.4081 3.76789 23.696C3.05678 22.984 2.4929 22.1389 2.10841 21.2089C1.72391 20.2789 1.52633 19.2823 1.52699 18.276C1.52764 17.2697 1.72648 16.2733 2.11219 15.3439C2.4979 14.4144 3.06293 13.57 3.77497 12.8589C4.48701 12.1478 5.33212 11.5839 6.26209 11.1994C7.19206 10.8149 8.18863 10.6173 9.19495 10.618C10.6394 10.6173 12.0545 11.0254 13.2767 11.7951C14.499 12.5648 15.4785 13.6647 16.1019 14.9676C16.7254 16.2705 16.9675 17.7233 16.8001 19.1579C16.6327 20.5926 16.0626 21.9506 15.156 23.075L15.157 23.078ZM8.51698 20.35C7.86246 20.3502 7.22811 20.1234 6.72205 19.7083C6.21599 19.2933 5.86951 18.7156 5.74165 18.0737C5.61379 17.4317 5.71249 16.7654 6.02088 16.1881C6.32927 15.6108 6.8283 15.1582 7.43293 14.9076C8.03756 14.657 8.71036 14.6238 9.33674 14.8136C9.96311 15.0035 10.5043 15.4046 10.868 15.9488C11.2318 16.4929 11.3956 17.1463 11.3316 17.7977C11.2676 18.4491 10.9797 19.0581 10.517 19.521C10.2544 19.7842 9.94254 19.9931 9.59919 20.1357C9.25584 20.2783 8.88778 20.3518 8.516 20.352L8.51698 20.35ZM25.469 17.005H23.563V14.775H22.031L22.03 16.307H18.17L17.691 14.775C16.9968 13.0938 15.8194 11.6562 14.308 10.6443C12.7965 9.63229 11.0189 9.0914 9.19996 9.09H9.193C9.048 9.09 8.90399 9.09 8.76099 9.1C8.79213 8.88671 8.89875 8.69167 9.06153 8.55036C9.22431 8.40905 9.4324 8.33086 9.64796 8.33H24.573C24.8117 8.33 25.0406 8.42483 25.2094 8.59361C25.3781 8.76239 25.473 8.99131 25.473 9.23L25.469 17.005Z" fill="#05141F"/>
<path d="M21.3679 9.37601C20.913 9.37601 20.4685 9.5109 20.0902 9.76363C19.712 10.0164 19.4171 10.3756 19.2431 10.7958C19.069 11.2161 19.0234 11.6786 19.1122 12.1247C19.2009 12.5709 19.4199 12.9807 19.7416 13.3024C20.0632 13.624 20.4732 13.8431 20.9193 13.9318C21.3655 14.0206 21.8279 13.975 22.2482 13.8009C22.6685 13.6269 23.0277 13.3321 23.2804 12.9538C23.5331 12.5756 23.668 12.1309 23.668 11.676C23.668 11.066 23.4256 10.481 22.9943 10.0497C22.5629 9.61833 21.9779 9.37601 21.3679 9.37601ZM21.3679 12.609C21.183 12.609 21.0023 12.5542 20.8485 12.4514C20.6948 12.3487 20.5749 12.2027 20.5042 12.0318C20.4334 11.861 20.4149 11.673 20.4509 11.4916C20.487 11.3102 20.576 11.1436 20.7068 11.0129C20.8376 10.8821 21.0042 10.7931 21.1856 10.757C21.3669 10.7209 21.555 10.7394 21.7258 10.8102C21.8967 10.8809 22.0427 11.0008 22.1454 11.1545C22.2481 11.3083 22.303 11.4891 22.303 11.674C22.303 11.922 22.2044 12.1598 22.0291 12.3352C21.8537 12.5105 21.6159 12.609 21.3679 12.609Z" fill="#05141F"/>
</g>
<defs>
<clipPath id="clip0_3_1930">
<rect width="27" height="27" fill="white" transform="translate(0 0.473999)"/>
</clipPath>
</defs>
</svg>
