<svg width="27" height="28" viewBox="0 0 27 28" fill="none" xmlns="http://www.w3.org/2000/svg">
<g clip-path="url(#clip0_3_2027)">
<path d="M3.6 9.374C4.1 7.974 4.6 6.774 5.1 5.474C5.6 4.174 6.3 3.674 7.6 3.674C11.5 3.674 15.4 3.674 19.3 3.674C20.7 3.674 21.3 4.174 21.8 5.474C22.3 6.774 22.8 7.974 23.3 9.374C23.8 8.574 24.4 7.874 25.3 7.774C25.6 7.774 26 7.774 26.1 8.074C26.3 8.574 25.8 8.574 25.5 8.574C24.7 8.674 24.2 9.174 24 9.974C24 10.174 24.1 10.474 24.3 10.574C26 11.274 26.8 12.574 26.8 14.474C26.8 17.174 26.8 19.874 26.8 22.574C26.8 23.774 26.2 24.374 25 24.374C24.2 24.374 23.5 24.374 22.7 24.374C21.8 24.374 21.2 23.774 21.1 22.874C21.1 22.174 21.1 21.474 21.1 20.774H5.6C5.6 21.474 5.6 22.074 5.6 22.674C5.6 23.674 5 24.274 4 24.274C3.2 24.274 2.4 24.274 1.6 24.274C0.7 24.274 0 23.674 0 22.674C0 19.774 0 16.874 0 13.974C0 12.374 0.9 11.174 2.4 10.574C2.9 10.374 3 10.174 2.8 9.674C2.5 8.974 2 8.674 1.3 8.474C1.1 8.474 0.7 8.274 0.7 7.974C0.7 7.674 1.2 7.674 1.4 7.674C2.3 7.674 3 8.274 3.5 9.274L3.6 9.374ZM26.1 19.774V19.074C26.1 17.474 26.1 15.874 26.1 14.274C26.1 12.374 24.8 11.074 23 11.074C16.7 11.074 10.4 11.074 4.1 11.074C2.2 11.074 0.9 12.374 0.9 14.274C0.9 15.874 0.9 17.474 0.9 19.174C0.9 19.374 0.9 19.474 0.9 19.774H26.1ZM4.1 10.174H22.8C22.2 8.674 21.7 7.174 21.1 5.674C20.7 4.674 20.4 4.474 19.3 4.474C17.5 4.474 15.7 4.474 13.9 4.474C11.8 4.474 9.6 4.474 7.5 4.474C6.9 4.474 6.2 4.474 6 5.174C5.3 6.774 4.7 8.474 4.1 10.174ZM0.9 20.674C0.9 21.374 0.9 22.074 0.9 22.674C0.9 22.874 1.3 23.274 1.5 23.274C2.3 23.274 3.2 23.274 4 23.274C4.2 23.274 4.6 22.874 4.7 22.674C4.7 21.974 4.7 21.374 4.7 20.674H0.9ZM22.3 20.674C22.3 21.374 22.3 22.074 22.3 22.874C22.3 23.074 22.6 23.374 22.8 23.374C23.7 23.374 24.7 23.374 25.6 23.374C25.8 23.374 26.1 22.974 26.1 22.774C26.1 22.074 26.1 21.474 26.1 20.674H22.2H22.3Z" fill="#05141F"/>
<path d="M21.1 14.774C21.6 14.774 22.2 14.774 22.7 14.774C22.9 14.774 23.2 14.874 23.3 15.174C23.4 15.474 22.9 15.574 22.7 15.574C21.5 15.574 20.4 15.574 19.2 15.574C19 15.574 18.7 15.374 18.7 15.174C18.7 14.974 19 14.774 19.2 14.774C19.8 14.774 20.4 14.774 21.1 14.774Z" fill="#05141F"/>
<path d="M6.00001 15.674C5.40001 15.674 4.90001 15.674 4.30001 15.674C4.10001 15.674 3.70001 15.474 3.70001 15.274C3.70001 15.074 4.00001 14.874 4.20001 14.874C5.40001 14.874 6.50001 14.874 7.70001 14.874C7.90001 14.874 8.20001 15.074 8.20001 15.274C8.20001 15.474 7.80001 15.674 7.60001 15.674C7.00001 15.674 6.50001 15.674 5.90001 15.674H6.00001Z" fill="#05141F"/>
</g>
<defs>
<clipPath id="clip0_3_2027">
<rect width="27" height="27" fill="white" transform="translate(0 0.473999)"/>
</clipPath>
</defs>
</svg>
